<mxfile host="app.diagrams.net" modified="2024-01-15T13:54:10.912Z" agent="Mozilla/5.0 (X11; Ubuntu; Linux x86_64; rv:121.0) Gecko/20100101 Firefox/121.0" etag="EJoGdRBS3wXPeeSPofyi" version="22.1.18" type="device">
  <diagram name="Page-1" id="E5AxCyOhZKjhce2MvHdj">
    <mxGraphModel dx="1430" dy="769" grid="1" gridSize="10" guides="1" tooltips="1" connect="1" arrows="1" fold="1" page="1" pageScale="1" pageWidth="850" pageHeight="1100" math="0" shadow="0">
      <root>
        <mxCell id="0" />
        <mxCell id="1" parent="0" />
        <mxCell id="ir3scniFZbBamXwvJh3l-74" value="&lt;div&gt;&lt;br&gt;&lt;/div&gt;&lt;div&gt;&lt;br&gt;&lt;/div&gt;&lt;div&gt;&lt;br&gt;&lt;/div&gt;&lt;div&gt;&lt;br&gt;&lt;/div&gt;&lt;div&gt;&lt;br&gt;&lt;/div&gt;&lt;div&gt;&lt;br&gt;&lt;/div&gt;&lt;div&gt;&lt;br&gt;&lt;/div&gt;&lt;div&gt;&lt;br&gt;&lt;/div&gt;&lt;div&gt;&lt;br&gt;&lt;/div&gt;&lt;div&gt;&lt;br&gt;&lt;/div&gt;&lt;div&gt;&lt;br&gt;&lt;/div&gt;&lt;div&gt;&lt;br&gt;&lt;/div&gt;&lt;div&gt;&lt;br&gt;&lt;/div&gt;&lt;div&gt;&lt;br&gt;&lt;/div&gt;&lt;div&gt;&lt;br&gt;&lt;/div&gt;&lt;div&gt;&lt;br&gt;&lt;/div&gt;&lt;div&gt;&lt;br&gt;&lt;/div&gt;&lt;div&gt;&lt;br&gt;&lt;/div&gt;&lt;div&gt;packet Forwarder&lt;/div&gt;" style="rounded=1;whiteSpace=wrap;html=1;dashed=1;movable=0;resizable=0;rotatable=0;deletable=0;editable=0;locked=1;connectable=0;strokeWidth=2;" parent="1" vertex="1">
          <mxGeometry x="740" y="1540" width="730" height="320" as="geometry" />
        </mxCell>
        <mxCell id="ir3scniFZbBamXwvJh3l-37" value="&lt;div style=&quot;font-size: 16px;&quot;&gt;&lt;font style=&quot;font-size: 16px;&quot;&gt;&lt;b&gt;&lt;br&gt;&lt;/b&gt;&lt;/font&gt;&lt;/div&gt;&lt;div style=&quot;font-size: 16px;&quot;&gt;&lt;font style=&quot;font-size: 16px;&quot;&gt;&lt;b&gt;&lt;br&gt;&lt;/b&gt;&lt;/font&gt;&lt;/div&gt;&lt;div style=&quot;font-size: 16px;&quot;&gt;&lt;font style=&quot;font-size: 16px;&quot;&gt;&lt;b&gt;&lt;br&gt;&lt;/b&gt;&lt;/font&gt;&lt;/div&gt;&lt;div style=&quot;font-size: 16px;&quot;&gt;&lt;font style=&quot;font-size: 16px;&quot;&gt;&lt;b&gt;&lt;br&gt;&lt;/b&gt;&lt;/font&gt;&lt;/div&gt;&lt;div style=&quot;font-size: 16px;&quot;&gt;&lt;font style=&quot;font-size: 16px;&quot;&gt;&lt;b&gt;&lt;br&gt;&lt;/b&gt;&lt;/font&gt;&lt;/div&gt;&lt;div style=&quot;font-size: 16px;&quot;&gt;&lt;font style=&quot;font-size: 16px;&quot;&gt;&lt;b&gt;&lt;br&gt;&lt;/b&gt;&lt;/font&gt;&lt;/div&gt;&lt;div style=&quot;font-size: 16px;&quot;&gt;&lt;font style=&quot;font-size: 16px;&quot;&gt;&lt;b&gt;&lt;br&gt;&lt;/b&gt;&lt;/font&gt;&lt;/div&gt;&lt;div style=&quot;font-size: 16px;&quot;&gt;&lt;font style=&quot;font-size: 16px;&quot;&gt;&lt;b&gt;&lt;br&gt;&lt;/b&gt;&lt;/font&gt;&lt;/div&gt;&lt;div style=&quot;font-size: 16px;&quot;&gt;&lt;font style=&quot;font-size: 16px;&quot;&gt;&lt;b&gt;&lt;br&gt;&lt;/b&gt;&lt;/font&gt;&lt;/div&gt;&lt;div style=&quot;font-size: 16px;&quot;&gt;&lt;font style=&quot;font-size: 16px;&quot;&gt;&lt;b&gt;&lt;br&gt;&lt;/b&gt;&lt;/font&gt;&lt;/div&gt;&lt;div style=&quot;font-size: 16px;&quot;&gt;&lt;font style=&quot;font-size: 16px;&quot;&gt;&lt;b&gt;&lt;br&gt;&lt;/b&gt;&lt;/font&gt;&lt;/div&gt;&lt;div style=&quot;font-size: 16px;&quot;&gt;&lt;font style=&quot;font-size: 16px;&quot;&gt;&lt;b&gt;&lt;br&gt;&lt;/b&gt;&lt;/font&gt;&lt;/div&gt;&lt;div style=&quot;font-size: 16px;&quot;&gt;&lt;br&gt;&lt;/div&gt;" style="rounded=1;whiteSpace=wrap;html=1;dashed=1;movable=0;resizable=0;rotatable=0;deletable=0;editable=0;locked=1;connectable=0;strokeWidth=2;" parent="1" vertex="1">
          <mxGeometry x="750" y="1590" width="710" height="260" as="geometry" />
        </mxCell>
        <mxCell id="ir3scniFZbBamXwvJh3l-57" value="Network Server" style="rounded=1;whiteSpace=wrap;html=1;dashed=1;" parent="1" vertex="1">
          <mxGeometry x="1290" y="1360" width="170" height="160" as="geometry" />
        </mxCell>
        <mxCell id="ir3scniFZbBamXwvJh3l-63" value="&amp;nbsp;" style="text;whiteSpace=wrap;html=1;" parent="1" vertex="1">
          <mxGeometry x="1490" y="1370" width="40" height="40" as="geometry" />
        </mxCell>
        <mxCell id="ir3scniFZbBamXwvJh3l-72" value="&amp;nbsp;" style="text;whiteSpace=wrap;html=1;" parent="1" vertex="1">
          <mxGeometry x="230" y="940" width="40" height="40" as="geometry" />
        </mxCell>
        <mxCell id="ir3scniFZbBamXwvJh3l-73" value="&amp;nbsp;" style="text;whiteSpace=wrap;html=1;" parent="1" vertex="1">
          <mxGeometry x="1690" y="990" width="40" height="40" as="geometry" />
        </mxCell>
        <mxCell id="ir3scniFZbBamXwvJh3l-75" value="&lt;font size=&quot;1&quot;&gt;&lt;b&gt;&lt;font style=&quot;font-size: 16px;&quot;&gt;Hardcoded parent&lt;/font&gt;&lt;/b&gt;&lt;/font&gt;" style="text;html=1;strokeColor=none;fillColor=none;align=center;verticalAlign=middle;whiteSpace=wrap;rounded=0;" parent="1" vertex="1">
          <mxGeometry x="800" y="1550" width="60" height="30" as="geometry" />
        </mxCell>
        <mxCell id="ir3scniFZbBamXwvJh3l-77" value="NSQueueCheck" style="rounded=1;whiteSpace=wrap;html=1;fillColor=#f5f5f5;fontColor=#333333;strokeColor=#666666;" parent="1" vertex="1">
          <mxGeometry x="760" y="1770" width="120" height="60" as="geometry" />
        </mxCell>
        <mxCell id="ir3scniFZbBamXwvJh3l-85" value="&amp;nbsp;" style="text;whiteSpace=wrap;html=1;" parent="1" vertex="1">
          <mxGeometry x="820" y="1270" width="40" height="40" as="geometry" />
        </mxCell>
        <mxCell id="ir3scniFZbBamXwvJh3l-113" style="edgeStyle=orthogonalEdgeStyle;rounded=0;orthogonalLoop=1;jettySize=auto;html=1;exitX=1;exitY=0.5;exitDx=0;exitDy=0;entryX=0.5;entryY=1;entryDx=0;entryDy=0;startArrow=classic;startFill=1;" parent="1" source="ir3scniFZbBamXwvJh3l-108" target="ir3scniFZbBamXwvJh3l-57" edge="1">
          <mxGeometry relative="1" as="geometry" />
        </mxCell>
        <mxCell id="ir3scniFZbBamXwvJh3l-108" value="gRPC API" style="rounded=1;whiteSpace=wrap;html=1;fillColor=#f5f5f5;fontColor=#333333;strokeColor=#666666;" parent="1" vertex="1">
          <mxGeometry x="1230" y="1670" width="120" height="140" as="geometry" />
        </mxCell>
        <mxCell id="ir3scniFZbBamXwvJh3l-109" value="" style="endArrow=classic;html=1;rounded=0;" parent="1" edge="1">
          <mxGeometry width="50" height="50" relative="1" as="geometry">
            <mxPoint x="1160" y="1690" as="sourcePoint" />
            <mxPoint x="1230" y="1690" as="targetPoint" />
          </mxGeometry>
        </mxCell>
        <mxCell id="ir3scniFZbBamXwvJh3l-110" value="" style="endArrow=classic;html=1;rounded=0;" parent="1" edge="1">
          <mxGeometry width="50" height="50" relative="1" as="geometry">
            <mxPoint x="1160" y="1710" as="sourcePoint" />
            <mxPoint x="1230" y="1710" as="targetPoint" />
          </mxGeometry>
        </mxCell>
        <mxCell id="ir3scniFZbBamXwvJh3l-111" value="Register HP as Gateway" style="text;html=1;strokeColor=none;fillColor=none;align=center;verticalAlign=middle;whiteSpace=wrap;rounded=0;" parent="1" vertex="1">
          <mxGeometry x="1020" y="1680" width="140" height="20" as="geometry" />
        </mxCell>
        <mxCell id="ir3scniFZbBamXwvJh3l-112" value="Register Nodes" style="text;html=1;strokeColor=none;fillColor=none;align=center;verticalAlign=middle;whiteSpace=wrap;rounded=0;" parent="1" vertex="1">
          <mxGeometry x="1040" y="1700" width="140" height="20" as="geometry" />
        </mxCell>
        <mxCell id="ir3scniFZbBamXwvJh3l-121" style="edgeStyle=orthogonalEdgeStyle;rounded=0;orthogonalLoop=1;jettySize=auto;html=1;exitX=0.025;exitY=0.931;exitDx=0;exitDy=0;entryX=1;entryY=0.5;entryDx=0;entryDy=0;exitPerimeter=0;" parent="1" source="ir3scniFZbBamXwvJh3l-108" target="ir3scniFZbBamXwvJh3l-122" edge="1">
          <mxGeometry relative="1" as="geometry">
            <mxPoint x="1210" y="1780" as="sourcePoint" />
          </mxGeometry>
        </mxCell>
        <mxCell id="ir3scniFZbBamXwvJh3l-124" style="edgeStyle=orthogonalEdgeStyle;rounded=0;orthogonalLoop=1;jettySize=auto;html=1;exitX=0;exitY=0.5;exitDx=0;exitDy=0;" parent="1" source="ir3scniFZbBamXwvJh3l-122" target="ir3scniFZbBamXwvJh3l-77" edge="1">
          <mxGeometry relative="1" as="geometry" />
        </mxCell>
        <mxCell id="ir3scniFZbBamXwvJh3l-122" value="&lt;div&gt;-create a dictionary of neccessarry parameters for each node&lt;/div&gt;&lt;div&gt;-put in the AppKeys&lt;br&gt;&lt;/div&gt;" style="rounded=0;whiteSpace=wrap;html=1;" parent="1" vertex="1">
          <mxGeometry x="900" y="1770" width="170" height="60" as="geometry" />
        </mxCell>
        <mxCell id="ir3scniFZbBamXwvJh3l-123" value="&amp;nbsp;" style="text;whiteSpace=wrap;html=1;" parent="1" vertex="1">
          <mxGeometry x="580" y="1830" width="40" height="40" as="geometry" />
        </mxCell>
        <mxCell id="Aqn2oeDS5Qo_4Vc99hal-3" value="&lt;font style=&quot;font-size: 16px;&quot;&gt;&lt;b&gt;Packet forwarder&lt;br&gt;&lt;/b&gt;&lt;/font&gt;" style="text;html=1;strokeColor=none;fillColor=none;align=center;verticalAlign=middle;whiteSpace=wrap;rounded=0;" vertex="1" parent="1">
          <mxGeometry x="870" y="1600" width="70" height="40" as="geometry" />
        </mxCell>
        <mxCell id="Aqn2oeDS5Qo_4Vc99hal-5" value="&lt;div&gt;getProvisionedGateways&lt;/div&gt;&lt;div&gt;getProvisionedDevices&lt;/div&gt;&lt;div&gt;getNodeKeys&lt;br&gt;&lt;/div&gt;" style="text;html=1;strokeColor=none;fillColor=none;align=center;verticalAlign=middle;whiteSpace=wrap;rounded=0;" vertex="1" parent="1">
          <mxGeometry x="1060" y="1725" width="60" height="30" as="geometry" />
        </mxCell>
        <mxCell id="Aqn2oeDS5Qo_4Vc99hal-8" value="" style="endArrow=classic;html=1;rounded=0;" edge="1" parent="1">
          <mxGeometry width="50" height="50" relative="1" as="geometry">
            <mxPoint x="1160" y="1730" as="sourcePoint" />
            <mxPoint x="1230" y="1730" as="targetPoint" />
          </mxGeometry>
        </mxCell>
        <mxCell id="Aqn2oeDS5Qo_4Vc99hal-9" value="gRPC socket interface" style="text;html=1;strokeColor=none;fillColor=none;align=center;verticalAlign=middle;whiteSpace=wrap;rounded=0;" vertex="1" parent="1">
          <mxGeometry x="1370" y="1640" width="60" height="30" as="geometry" />
        </mxCell>
      </root>
    </mxGraphModel>
  </diagram>
</mxfile>
